<mxfile host="app.diagrams.net" agent="Mozilla/5.0 (Macintosh; Intel Mac OS X 10_15_7) AppleWebKit/537.36 (KHTML, like Gecko) Chrome/129.0.0.0 Safari/537.36" version="24.7.16">
  <diagram name="Page-1" id="TjstkN5ry2bIom6aaDfG">
    <mxGraphModel dx="1395" dy="822" grid="1" gridSize="10" guides="1" tooltips="1" connect="1" arrows="1" fold="1" page="1" pageScale="1" pageWidth="850" pageHeight="1100" math="0" shadow="0">
      <root>
        <mxCell id="0" />
        <mxCell id="1" parent="0" />
        <mxCell id="l7971Fb0KRoO0V9OjNwi-176" value="" style="rounded=0;whiteSpace=wrap;html=1;strokeWidth=4;" vertex="1" parent="1">
          <mxGeometry x="100" y="180" width="590" height="860" as="geometry" />
        </mxCell>
        <mxCell id="l7971Fb0KRoO0V9OjNwi-2" value="" style="rounded=0;whiteSpace=wrap;html=1;fillColor=#ffe6cc;strokeColor=#d79b00;" vertex="1" parent="1">
          <mxGeometry x="120" y="357.5" width="160" height="485" as="geometry" />
        </mxCell>
        <mxCell id="l7971Fb0KRoO0V9OjNwi-116" style="edgeStyle=orthogonalEdgeStyle;rounded=0;orthogonalLoop=1;jettySize=auto;html=1;entryX=0.25;entryY=1;entryDx=0;entryDy=0;startArrow=classic;startFill=1;endArrow=none;endFill=0;strokeWidth=4;fillColor=#f5f5f5;strokeColor=#666666;" edge="1" parent="1" source="l7971Fb0KRoO0V9OjNwi-3" target="l7971Fb0KRoO0V9OjNwi-27">
          <mxGeometry relative="1" as="geometry" />
        </mxCell>
        <mxCell id="l7971Fb0KRoO0V9OjNwi-3" value="" style="triangle;whiteSpace=wrap;html=1;rotation=-180;fillColor=#d5e8d4;strokeColor=#82b366;" vertex="1" parent="1">
          <mxGeometry x="210" y="370" width="50" height="60" as="geometry" />
        </mxCell>
        <mxCell id="l7971Fb0KRoO0V9OjNwi-6" value="" style="triangle;whiteSpace=wrap;html=1;rotation=-180;fillColor=#d5e8d4;strokeColor=#82b366;" vertex="1" parent="1">
          <mxGeometry x="210" y="450" width="50" height="60" as="geometry" />
        </mxCell>
        <mxCell id="l7971Fb0KRoO0V9OjNwi-8" value="" style="triangle;whiteSpace=wrap;html=1;rotation=-180;fillColor=#d5e8d4;strokeColor=#82b366;" vertex="1" parent="1">
          <mxGeometry x="210" y="530" width="50" height="60" as="geometry" />
        </mxCell>
        <mxCell id="l7971Fb0KRoO0V9OjNwi-10" value="" style="triangle;whiteSpace=wrap;html=1;rotation=-180;fillColor=#d5e8d4;strokeColor=#82b366;" vertex="1" parent="1">
          <mxGeometry x="210" y="610" width="50" height="60" as="geometry" />
        </mxCell>
        <mxCell id="l7971Fb0KRoO0V9OjNwi-15" value="" style="rounded=0;whiteSpace=wrap;html=1;fillColor=#2e7956;direction=south;" vertex="1" parent="1">
          <mxGeometry x="480" y="200" width="190" height="820" as="geometry" />
        </mxCell>
        <mxCell id="l7971Fb0KRoO0V9OjNwi-16" value="" style="rounded=0;whiteSpace=wrap;html=1;fillColor=#e5dc7b;direction=south;" vertex="1" parent="1">
          <mxGeometry x="480" y="210" width="20" height="10" as="geometry" />
        </mxCell>
        <mxCell id="l7971Fb0KRoO0V9OjNwi-17" value="" style="shape=or;whiteSpace=wrap;html=1;direction=east;" vertex="1" parent="1">
          <mxGeometry x="480" y="605" width="30" height="15" as="geometry" />
        </mxCell>
        <mxCell id="l7971Fb0KRoO0V9OjNwi-18" value="&lt;font color=&quot;#a39f9f&quot;&gt;&lt;span style=&quot;font-size: 16px;&quot;&gt;ECC&lt;/span&gt;&lt;/font&gt;&lt;br&gt;&lt;div style=&quot;font-size: 16px;&quot;&gt;&lt;span style=&quot;color: rgb(163, 159, 159);&quot;&gt;x8&lt;/span&gt;&lt;/div&gt;" style="rounded=0;whiteSpace=wrap;html=1;strokeColor=#454744;fillColor=#464646;direction=south;" vertex="1" parent="1">
          <mxGeometry x="540" y="660" width="80" height="60" as="geometry" />
        </mxCell>
        <mxCell id="l7971Fb0KRoO0V9OjNwi-19" value="&lt;span style=&quot;color: rgb(163, 159, 159); font-size: 16px;&quot;&gt;DQ Byte 3&lt;/span&gt;&lt;div style=&quot;font-size: 16px;&quot;&gt;&lt;span style=&quot;color: rgb(163, 159, 159);&quot;&gt;x8&lt;/span&gt;&lt;/div&gt;" style="rounded=0;whiteSpace=wrap;html=1;strokeColor=#454744;fillColor=#464646;direction=south;" vertex="1" parent="1">
          <mxGeometry x="540" y="730" width="80" height="60" as="geometry" />
        </mxCell>
        <mxCell id="l7971Fb0KRoO0V9OjNwi-20" value="&lt;span style=&quot;color: rgb(163, 159, 159); font-size: 16px;&quot;&gt;DQ Byte 2&lt;/span&gt;&lt;div style=&quot;font-size: 16px;&quot;&gt;&lt;span style=&quot;color: rgb(163, 159, 159);&quot;&gt;x8&lt;/span&gt;&lt;/div&gt;" style="rounded=0;whiteSpace=wrap;html=1;strokeColor=#454744;fillColor=#464646;direction=south;" vertex="1" parent="1">
          <mxGeometry x="540" y="800" width="80" height="60" as="geometry" />
        </mxCell>
        <mxCell id="l7971Fb0KRoO0V9OjNwi-21" value="&lt;span style=&quot;color: rgb(163, 159, 159); font-size: 16px;&quot;&gt;DQ Byte 0&lt;/span&gt;&lt;div style=&quot;font-size: 16px;&quot;&gt;&lt;span style=&quot;color: rgb(163, 159, 159);&quot;&gt;x8&lt;/span&gt;&lt;/div&gt;" style="rounded=0;whiteSpace=wrap;html=1;strokeColor=#454744;fillColor=#464646;direction=south;" vertex="1" parent="1">
          <mxGeometry x="540" y="940" width="80" height="60" as="geometry" />
        </mxCell>
        <mxCell id="l7971Fb0KRoO0V9OjNwi-22" value="&lt;span style=&quot;color: rgb(163, 159, 159); font-size: 16px;&quot;&gt;DQ Byte 1&lt;/span&gt;&lt;div style=&quot;font-size: 16px;&quot;&gt;&lt;span style=&quot;color: rgb(163, 159, 159);&quot;&gt;x8&lt;/span&gt;&lt;/div&gt;" style="rounded=0;whiteSpace=wrap;html=1;strokeColor=#454744;fillColor=#464646;direction=south;" vertex="1" parent="1">
          <mxGeometry x="540" y="870" width="80" height="60" as="geometry" />
        </mxCell>
        <mxCell id="l7971Fb0KRoO0V9OjNwi-23" value="" style="rounded=0;whiteSpace=wrap;html=1;fillColor=#e5dc7b;direction=south;" vertex="1" parent="1">
          <mxGeometry x="480" y="220" width="20" height="10" as="geometry" />
        </mxCell>
        <mxCell id="l7971Fb0KRoO0V9OjNwi-24" value="" style="rounded=0;whiteSpace=wrap;html=1;fillColor=#e5dc7b;direction=south;" vertex="1" parent="1">
          <mxGeometry x="480" y="230" width="20" height="10" as="geometry" />
        </mxCell>
        <mxCell id="l7971Fb0KRoO0V9OjNwi-25" value="" style="rounded=0;whiteSpace=wrap;html=1;fillColor=#e5dc7b;direction=south;" vertex="1" parent="1">
          <mxGeometry x="480" y="240" width="20" height="10" as="geometry" />
        </mxCell>
        <mxCell id="l7971Fb0KRoO0V9OjNwi-26" value="" style="rounded=0;whiteSpace=wrap;html=1;fillColor=#e5dc7b;direction=south;" vertex="1" parent="1">
          <mxGeometry x="480" y="250" width="20" height="10" as="geometry" />
        </mxCell>
        <mxCell id="l7971Fb0KRoO0V9OjNwi-27" value="" style="rounded=0;whiteSpace=wrap;html=1;fillColor=#e5dc7b;direction=south;" vertex="1" parent="1">
          <mxGeometry x="480" y="260" width="20" height="10" as="geometry" />
        </mxCell>
        <mxCell id="l7971Fb0KRoO0V9OjNwi-28" value="" style="rounded=0;whiteSpace=wrap;html=1;fillColor=#e5dc7b;direction=south;" vertex="1" parent="1">
          <mxGeometry x="480" y="270" width="20" height="10" as="geometry" />
        </mxCell>
        <mxCell id="l7971Fb0KRoO0V9OjNwi-29" value="" style="rounded=0;whiteSpace=wrap;html=1;fillColor=#e5dc7b;direction=south;" vertex="1" parent="1">
          <mxGeometry x="480" y="280" width="20" height="10" as="geometry" />
        </mxCell>
        <mxCell id="l7971Fb0KRoO0V9OjNwi-30" value="" style="rounded=0;whiteSpace=wrap;html=1;fillColor=#e5dc7b;direction=south;" vertex="1" parent="1">
          <mxGeometry x="480" y="290" width="20" height="10" as="geometry" />
        </mxCell>
        <mxCell id="l7971Fb0KRoO0V9OjNwi-31" value="" style="rounded=0;whiteSpace=wrap;html=1;fillColor=#e5dc7b;direction=south;" vertex="1" parent="1">
          <mxGeometry x="480" y="300" width="20" height="10" as="geometry" />
        </mxCell>
        <mxCell id="l7971Fb0KRoO0V9OjNwi-32" value="" style="rounded=0;whiteSpace=wrap;html=1;fillColor=#e5dc7b;direction=south;" vertex="1" parent="1">
          <mxGeometry x="480" y="310" width="20" height="10" as="geometry" />
        </mxCell>
        <mxCell id="l7971Fb0KRoO0V9OjNwi-33" value="" style="rounded=0;whiteSpace=wrap;html=1;fillColor=#e5dc7b;direction=south;" vertex="1" parent="1">
          <mxGeometry x="480" y="320" width="20" height="10" as="geometry" />
        </mxCell>
        <mxCell id="l7971Fb0KRoO0V9OjNwi-34" value="" style="rounded=0;whiteSpace=wrap;html=1;fillColor=#e5dc7b;direction=south;" vertex="1" parent="1">
          <mxGeometry x="480" y="330" width="20" height="10" as="geometry" />
        </mxCell>
        <mxCell id="l7971Fb0KRoO0V9OjNwi-35" value="" style="rounded=0;whiteSpace=wrap;html=1;fillColor=#e5dc7b;direction=south;" vertex="1" parent="1">
          <mxGeometry x="480" y="340" width="20" height="10" as="geometry" />
        </mxCell>
        <mxCell id="l7971Fb0KRoO0V9OjNwi-36" value="" style="rounded=0;whiteSpace=wrap;html=1;fillColor=#e5dc7b;direction=south;" vertex="1" parent="1">
          <mxGeometry x="480" y="350" width="20" height="10" as="geometry" />
        </mxCell>
        <mxCell id="l7971Fb0KRoO0V9OjNwi-37" value="" style="rounded=0;whiteSpace=wrap;html=1;fillColor=#e5dc7b;direction=south;" vertex="1" parent="1">
          <mxGeometry x="480" y="360" width="20" height="10" as="geometry" />
        </mxCell>
        <mxCell id="l7971Fb0KRoO0V9OjNwi-38" value="" style="rounded=0;whiteSpace=wrap;html=1;fillColor=#e5dc7b;direction=south;" vertex="1" parent="1">
          <mxGeometry x="480" y="370" width="20" height="10" as="geometry" />
        </mxCell>
        <mxCell id="l7971Fb0KRoO0V9OjNwi-39" value="" style="rounded=0;whiteSpace=wrap;html=1;fillColor=#e5dc7b;direction=south;" vertex="1" parent="1">
          <mxGeometry x="480" y="380" width="20" height="10" as="geometry" />
        </mxCell>
        <mxCell id="l7971Fb0KRoO0V9OjNwi-40" value="" style="rounded=0;whiteSpace=wrap;html=1;fillColor=#e5dc7b;direction=south;" vertex="1" parent="1">
          <mxGeometry x="480" y="390" width="20" height="10" as="geometry" />
        </mxCell>
        <mxCell id="l7971Fb0KRoO0V9OjNwi-41" value="" style="rounded=0;whiteSpace=wrap;html=1;fillColor=#e5dc7b;direction=south;" vertex="1" parent="1">
          <mxGeometry x="480" y="400" width="20" height="10" as="geometry" />
        </mxCell>
        <mxCell id="l7971Fb0KRoO0V9OjNwi-42" value="" style="rounded=0;whiteSpace=wrap;html=1;fillColor=#e5dc7b;direction=south;" vertex="1" parent="1">
          <mxGeometry x="480" y="410" width="20" height="10" as="geometry" />
        </mxCell>
        <mxCell id="l7971Fb0KRoO0V9OjNwi-43" value="" style="rounded=0;whiteSpace=wrap;html=1;fillColor=#e5dc7b;direction=south;" vertex="1" parent="1">
          <mxGeometry x="480" y="420" width="20" height="10" as="geometry" />
        </mxCell>
        <mxCell id="l7971Fb0KRoO0V9OjNwi-44" value="" style="rounded=0;whiteSpace=wrap;html=1;fillColor=#e5dc7b;direction=south;" vertex="1" parent="1">
          <mxGeometry x="480" y="430" width="20" height="10" as="geometry" />
        </mxCell>
        <mxCell id="l7971Fb0KRoO0V9OjNwi-45" value="" style="rounded=0;whiteSpace=wrap;html=1;fillColor=#e5dc7b;direction=south;" vertex="1" parent="1">
          <mxGeometry x="480" y="440" width="20" height="10" as="geometry" />
        </mxCell>
        <mxCell id="l7971Fb0KRoO0V9OjNwi-46" value="" style="rounded=0;whiteSpace=wrap;html=1;fillColor=#e5dc7b;direction=south;" vertex="1" parent="1">
          <mxGeometry x="480" y="450" width="20" height="10" as="geometry" />
        </mxCell>
        <mxCell id="l7971Fb0KRoO0V9OjNwi-47" value="" style="rounded=0;whiteSpace=wrap;html=1;fillColor=#e5dc7b;direction=south;" vertex="1" parent="1">
          <mxGeometry x="480" y="460" width="20" height="10" as="geometry" />
        </mxCell>
        <mxCell id="l7971Fb0KRoO0V9OjNwi-48" value="" style="rounded=0;whiteSpace=wrap;html=1;fillColor=#e5dc7b;direction=south;" vertex="1" parent="1">
          <mxGeometry x="480" y="470" width="20" height="10" as="geometry" />
        </mxCell>
        <mxCell id="l7971Fb0KRoO0V9OjNwi-49" value="" style="rounded=0;whiteSpace=wrap;html=1;fillColor=#e5dc7b;direction=south;" vertex="1" parent="1">
          <mxGeometry x="480" y="480" width="20" height="10" as="geometry" />
        </mxCell>
        <mxCell id="l7971Fb0KRoO0V9OjNwi-50" value="" style="rounded=0;whiteSpace=wrap;html=1;fillColor=#e5dc7b;direction=south;" vertex="1" parent="1">
          <mxGeometry x="480" y="490" width="20" height="10" as="geometry" />
        </mxCell>
        <mxCell id="l7971Fb0KRoO0V9OjNwi-51" value="" style="rounded=0;whiteSpace=wrap;html=1;fillColor=#e5dc7b;direction=south;" vertex="1" parent="1">
          <mxGeometry x="480" y="500" width="20" height="10" as="geometry" />
        </mxCell>
        <mxCell id="l7971Fb0KRoO0V9OjNwi-52" value="" style="rounded=0;whiteSpace=wrap;html=1;fillColor=#e5dc7b;direction=south;" vertex="1" parent="1">
          <mxGeometry x="480" y="510" width="20" height="10" as="geometry" />
        </mxCell>
        <mxCell id="l7971Fb0KRoO0V9OjNwi-53" value="" style="rounded=0;whiteSpace=wrap;html=1;fillColor=#e5dc7b;direction=south;" vertex="1" parent="1">
          <mxGeometry x="480" y="520" width="20" height="10" as="geometry" />
        </mxCell>
        <mxCell id="l7971Fb0KRoO0V9OjNwi-54" value="" style="rounded=0;whiteSpace=wrap;html=1;fillColor=#e5dc7b;direction=south;" vertex="1" parent="1">
          <mxGeometry x="480" y="530" width="20" height="10" as="geometry" />
        </mxCell>
        <mxCell id="l7971Fb0KRoO0V9OjNwi-55" value="" style="rounded=0;whiteSpace=wrap;html=1;fillColor=#e5dc7b;direction=south;" vertex="1" parent="1">
          <mxGeometry x="480" y="540" width="20" height="10" as="geometry" />
        </mxCell>
        <mxCell id="l7971Fb0KRoO0V9OjNwi-56" value="" style="rounded=0;whiteSpace=wrap;html=1;fillColor=#e5dc7b;direction=south;" vertex="1" parent="1">
          <mxGeometry x="480" y="550" width="20" height="10" as="geometry" />
        </mxCell>
        <mxCell id="l7971Fb0KRoO0V9OjNwi-57" value="" style="rounded=0;whiteSpace=wrap;html=1;fillColor=#e5dc7b;direction=south;" vertex="1" parent="1">
          <mxGeometry x="480" y="560" width="20" height="10" as="geometry" />
        </mxCell>
        <mxCell id="l7971Fb0KRoO0V9OjNwi-58" value="" style="rounded=0;whiteSpace=wrap;html=1;fillColor=#e5dc7b;direction=south;" vertex="1" parent="1">
          <mxGeometry x="480" y="570" width="20" height="10" as="geometry" />
        </mxCell>
        <mxCell id="l7971Fb0KRoO0V9OjNwi-59" value="" style="rounded=0;whiteSpace=wrap;html=1;fillColor=#e5dc7b;direction=south;" vertex="1" parent="1">
          <mxGeometry x="480" y="580" width="20" height="10" as="geometry" />
        </mxCell>
        <mxCell id="l7971Fb0KRoO0V9OjNwi-60" value="" style="rounded=0;whiteSpace=wrap;html=1;fillColor=#e5dc7b;direction=south;" vertex="1" parent="1">
          <mxGeometry x="480" y="590" width="20" height="10" as="geometry" />
        </mxCell>
        <mxCell id="l7971Fb0KRoO0V9OjNwi-61" value="" style="rounded=0;whiteSpace=wrap;html=1;fillColor=#e5dc7b;direction=south;" vertex="1" parent="1">
          <mxGeometry x="480" y="630" width="20" height="10" as="geometry" />
        </mxCell>
        <mxCell id="l7971Fb0KRoO0V9OjNwi-62" value="" style="rounded=0;whiteSpace=wrap;html=1;fillColor=#e5dc7b;direction=south;" vertex="1" parent="1">
          <mxGeometry x="480" y="640" width="20" height="10" as="geometry" />
        </mxCell>
        <mxCell id="l7971Fb0KRoO0V9OjNwi-63" value="" style="rounded=0;whiteSpace=wrap;html=1;fillColor=#e5dc7b;direction=south;" vertex="1" parent="1">
          <mxGeometry x="480" y="650" width="20" height="10" as="geometry" />
        </mxCell>
        <mxCell id="l7971Fb0KRoO0V9OjNwi-64" value="" style="rounded=0;whiteSpace=wrap;html=1;fillColor=#e5dc7b;direction=south;" vertex="1" parent="1">
          <mxGeometry x="480" y="660" width="20" height="10" as="geometry" />
        </mxCell>
        <mxCell id="l7971Fb0KRoO0V9OjNwi-65" value="" style="rounded=0;whiteSpace=wrap;html=1;fillColor=#e5dc7b;direction=south;" vertex="1" parent="1">
          <mxGeometry x="480" y="670" width="20" height="10" as="geometry" />
        </mxCell>
        <mxCell id="l7971Fb0KRoO0V9OjNwi-66" value="" style="rounded=0;whiteSpace=wrap;html=1;fillColor=#e5dc7b;direction=south;" vertex="1" parent="1">
          <mxGeometry x="480" y="680" width="20" height="10" as="geometry" />
        </mxCell>
        <mxCell id="l7971Fb0KRoO0V9OjNwi-67" value="" style="rounded=0;whiteSpace=wrap;html=1;fillColor=#e5dc7b;direction=south;" vertex="1" parent="1">
          <mxGeometry x="480" y="690" width="20" height="10" as="geometry" />
        </mxCell>
        <mxCell id="l7971Fb0KRoO0V9OjNwi-68" value="" style="rounded=0;whiteSpace=wrap;html=1;fillColor=#e5dc7b;direction=south;" vertex="1" parent="1">
          <mxGeometry x="480" y="700" width="20" height="10" as="geometry" />
        </mxCell>
        <mxCell id="l7971Fb0KRoO0V9OjNwi-69" value="" style="rounded=0;whiteSpace=wrap;html=1;fillColor=#e5dc7b;direction=south;" vertex="1" parent="1">
          <mxGeometry x="480" y="710" width="20" height="10" as="geometry" />
        </mxCell>
        <mxCell id="l7971Fb0KRoO0V9OjNwi-70" value="" style="rounded=0;whiteSpace=wrap;html=1;fillColor=#e5dc7b;direction=south;" vertex="1" parent="1">
          <mxGeometry x="480" y="720" width="20" height="10" as="geometry" />
        </mxCell>
        <mxCell id="l7971Fb0KRoO0V9OjNwi-71" value="" style="rounded=0;whiteSpace=wrap;html=1;fillColor=#e5dc7b;direction=south;" vertex="1" parent="1">
          <mxGeometry x="480" y="730" width="20" height="10" as="geometry" />
        </mxCell>
        <mxCell id="l7971Fb0KRoO0V9OjNwi-72" value="" style="rounded=0;whiteSpace=wrap;html=1;fillColor=#e5dc7b;direction=south;" vertex="1" parent="1">
          <mxGeometry x="480" y="740" width="20" height="10" as="geometry" />
        </mxCell>
        <mxCell id="l7971Fb0KRoO0V9OjNwi-73" value="" style="rounded=0;whiteSpace=wrap;html=1;fillColor=#e5dc7b;direction=south;" vertex="1" parent="1">
          <mxGeometry x="480" y="750" width="20" height="10" as="geometry" />
        </mxCell>
        <mxCell id="l7971Fb0KRoO0V9OjNwi-74" value="" style="rounded=0;whiteSpace=wrap;html=1;fillColor=#e5dc7b;direction=south;" vertex="1" parent="1">
          <mxGeometry x="480" y="760" width="20" height="10" as="geometry" />
        </mxCell>
        <mxCell id="l7971Fb0KRoO0V9OjNwi-75" value="" style="rounded=0;whiteSpace=wrap;html=1;fillColor=#e5dc7b;direction=south;" vertex="1" parent="1">
          <mxGeometry x="480" y="770" width="20" height="10" as="geometry" />
        </mxCell>
        <mxCell id="l7971Fb0KRoO0V9OjNwi-76" value="" style="rounded=0;whiteSpace=wrap;html=1;fillColor=#e5dc7b;direction=south;" vertex="1" parent="1">
          <mxGeometry x="480" y="780" width="20" height="10" as="geometry" />
        </mxCell>
        <mxCell id="l7971Fb0KRoO0V9OjNwi-77" value="" style="rounded=0;whiteSpace=wrap;html=1;fillColor=#e5dc7b;direction=south;" vertex="1" parent="1">
          <mxGeometry x="480" y="790" width="20" height="10" as="geometry" />
        </mxCell>
        <mxCell id="l7971Fb0KRoO0V9OjNwi-78" value="" style="rounded=0;whiteSpace=wrap;html=1;fillColor=#e5dc7b;direction=south;" vertex="1" parent="1">
          <mxGeometry x="480" y="800" width="20" height="10" as="geometry" />
        </mxCell>
        <mxCell id="l7971Fb0KRoO0V9OjNwi-79" value="" style="rounded=0;whiteSpace=wrap;html=1;fillColor=#e5dc7b;direction=south;" vertex="1" parent="1">
          <mxGeometry x="480" y="810" width="20" height="10" as="geometry" />
        </mxCell>
        <mxCell id="l7971Fb0KRoO0V9OjNwi-80" value="" style="rounded=0;whiteSpace=wrap;html=1;fillColor=#e5dc7b;direction=south;" vertex="1" parent="1">
          <mxGeometry x="480" y="820" width="20" height="10" as="geometry" />
        </mxCell>
        <mxCell id="l7971Fb0KRoO0V9OjNwi-81" value="" style="rounded=0;whiteSpace=wrap;html=1;fillColor=#e5dc7b;direction=south;" vertex="1" parent="1">
          <mxGeometry x="480" y="830" width="20" height="10" as="geometry" />
        </mxCell>
        <mxCell id="l7971Fb0KRoO0V9OjNwi-82" value="" style="rounded=0;whiteSpace=wrap;html=1;fillColor=#e5dc7b;direction=south;" vertex="1" parent="1">
          <mxGeometry x="480" y="840" width="20" height="10" as="geometry" />
        </mxCell>
        <mxCell id="l7971Fb0KRoO0V9OjNwi-83" value="" style="rounded=0;whiteSpace=wrap;html=1;fillColor=#e5dc7b;direction=south;" vertex="1" parent="1">
          <mxGeometry x="480" y="850" width="20" height="10" as="geometry" />
        </mxCell>
        <mxCell id="l7971Fb0KRoO0V9OjNwi-84" value="" style="rounded=0;whiteSpace=wrap;html=1;fillColor=#e5dc7b;direction=south;" vertex="1" parent="1">
          <mxGeometry x="480" y="860" width="20" height="10" as="geometry" />
        </mxCell>
        <mxCell id="l7971Fb0KRoO0V9OjNwi-85" value="" style="rounded=0;whiteSpace=wrap;html=1;fillColor=#e5dc7b;direction=south;" vertex="1" parent="1">
          <mxGeometry x="480" y="870" width="20" height="10" as="geometry" />
        </mxCell>
        <mxCell id="l7971Fb0KRoO0V9OjNwi-86" value="" style="rounded=0;whiteSpace=wrap;html=1;fillColor=#e5dc7b;direction=south;" vertex="1" parent="1">
          <mxGeometry x="480" y="880" width="20" height="10" as="geometry" />
        </mxCell>
        <mxCell id="l7971Fb0KRoO0V9OjNwi-87" value="" style="rounded=0;whiteSpace=wrap;html=1;fillColor=#e5dc7b;direction=south;" vertex="1" parent="1">
          <mxGeometry x="480" y="890" width="20" height="10" as="geometry" />
        </mxCell>
        <mxCell id="l7971Fb0KRoO0V9OjNwi-88" value="" style="rounded=0;whiteSpace=wrap;html=1;fillColor=#e5dc7b;direction=south;" vertex="1" parent="1">
          <mxGeometry x="480" y="900" width="20" height="10" as="geometry" />
        </mxCell>
        <mxCell id="l7971Fb0KRoO0V9OjNwi-89" value="" style="rounded=0;whiteSpace=wrap;html=1;fillColor=#e5dc7b;direction=south;" vertex="1" parent="1">
          <mxGeometry x="480" y="910" width="20" height="10" as="geometry" />
        </mxCell>
        <mxCell id="l7971Fb0KRoO0V9OjNwi-90" value="" style="rounded=0;whiteSpace=wrap;html=1;fillColor=#e5dc7b;direction=south;" vertex="1" parent="1">
          <mxGeometry x="480" y="920" width="20" height="10" as="geometry" />
        </mxCell>
        <mxCell id="l7971Fb0KRoO0V9OjNwi-91" value="" style="rounded=0;whiteSpace=wrap;html=1;fillColor=#e5dc7b;direction=south;" vertex="1" parent="1">
          <mxGeometry x="480" y="930" width="20" height="10" as="geometry" />
        </mxCell>
        <mxCell id="l7971Fb0KRoO0V9OjNwi-92" value="" style="rounded=0;whiteSpace=wrap;html=1;fillColor=#e5dc7b;direction=south;" vertex="1" parent="1">
          <mxGeometry x="480" y="940" width="20" height="10" as="geometry" />
        </mxCell>
        <mxCell id="l7971Fb0KRoO0V9OjNwi-93" value="" style="rounded=0;whiteSpace=wrap;html=1;fillColor=#e5dc7b;direction=south;" vertex="1" parent="1">
          <mxGeometry x="480" y="950" width="20" height="10" as="geometry" />
        </mxCell>
        <mxCell id="l7971Fb0KRoO0V9OjNwi-94" value="" style="rounded=0;whiteSpace=wrap;html=1;fillColor=#e5dc7b;direction=south;" vertex="1" parent="1">
          <mxGeometry x="480" y="960" width="20" height="10" as="geometry" />
        </mxCell>
        <mxCell id="l7971Fb0KRoO0V9OjNwi-95" value="" style="rounded=0;whiteSpace=wrap;html=1;fillColor=#e5dc7b;direction=south;" vertex="1" parent="1">
          <mxGeometry x="480" y="970" width="20" height="10" as="geometry" />
        </mxCell>
        <mxCell id="l7971Fb0KRoO0V9OjNwi-96" value="" style="rounded=0;whiteSpace=wrap;html=1;fillColor=#e5dc7b;direction=south;" vertex="1" parent="1">
          <mxGeometry x="480" y="980" width="20" height="10" as="geometry" />
        </mxCell>
        <mxCell id="l7971Fb0KRoO0V9OjNwi-97" value="" style="rounded=0;whiteSpace=wrap;html=1;fillColor=#e5dc7b;direction=south;" vertex="1" parent="1">
          <mxGeometry x="480" y="990" width="20" height="10" as="geometry" />
        </mxCell>
        <mxCell id="l7971Fb0KRoO0V9OjNwi-98" value="" style="rounded=0;whiteSpace=wrap;html=1;fillColor=#e5dc7b;direction=south;" vertex="1" parent="1">
          <mxGeometry x="480" y="1000" width="20" height="10" as="geometry" />
        </mxCell>
        <mxCell id="l7971Fb0KRoO0V9OjNwi-104" value="&lt;span style=&quot;color: rgb(163, 159, 159); font-size: 16px;&quot;&gt;&lt;font style=&quot;font-size: 16px;&quot;&gt;DQ Byte 0&lt;/font&gt;&lt;/span&gt;&lt;div style=&quot;font-size: 16px;&quot;&gt;&lt;span style=&quot;color: rgb(163, 159, 159);&quot;&gt;&lt;font style=&quot;font-size: 16px;&quot;&gt;x8&lt;/font&gt;&lt;/span&gt;&lt;/div&gt;" style="rounded=0;whiteSpace=wrap;html=1;strokeColor=#454744;fillColor=#464646;direction=south;" vertex="1" parent="1">
          <mxGeometry x="540" y="220" width="80" height="60" as="geometry" />
        </mxCell>
        <mxCell id="l7971Fb0KRoO0V9OjNwi-105" value="&lt;span style=&quot;color: rgb(163, 159, 159); font-size: 16px;&quot;&gt;DQ Byte 1&lt;/span&gt;&lt;div style=&quot;font-size: 16px;&quot;&gt;&lt;span style=&quot;color: rgb(163, 159, 159);&quot;&gt;x8&lt;/span&gt;&lt;/div&gt;" style="rounded=0;whiteSpace=wrap;html=1;strokeColor=#454744;fillColor=#464646;direction=south;" vertex="1" parent="1">
          <mxGeometry x="540" y="290" width="80" height="60" as="geometry" />
        </mxCell>
        <mxCell id="l7971Fb0KRoO0V9OjNwi-106" value="&lt;span style=&quot;color: rgb(163, 159, 159); font-size: 16px;&quot;&gt;DQ Byte 2&lt;/span&gt;&lt;div style=&quot;font-size: 16px;&quot;&gt;&lt;span style=&quot;color: rgb(163, 159, 159);&quot;&gt;x8&lt;/span&gt;&lt;/div&gt;" style="rounded=0;whiteSpace=wrap;html=1;strokeColor=#454744;fillColor=#464646;direction=south;" vertex="1" parent="1">
          <mxGeometry x="540" y="360" width="80" height="60" as="geometry" />
        </mxCell>
        <mxCell id="l7971Fb0KRoO0V9OjNwi-107" value="&lt;font color=&quot;#a39f9f&quot;&gt;&lt;span style=&quot;font-size: 16px;&quot;&gt;ECC&lt;/span&gt;&lt;/font&gt;&lt;br&gt;&lt;div style=&quot;font-size: 16px;&quot;&gt;&lt;span style=&quot;color: rgb(163, 159, 159);&quot;&gt;x8&lt;/span&gt;&lt;/div&gt;" style="rounded=0;whiteSpace=wrap;html=1;strokeColor=#454744;fillColor=#464646;direction=south;" vertex="1" parent="1">
          <mxGeometry x="540" y="500" width="80" height="60" as="geometry" />
        </mxCell>
        <mxCell id="l7971Fb0KRoO0V9OjNwi-108" value="&lt;span style=&quot;color: rgb(163, 159, 159); font-size: 16px;&quot;&gt;DQ Byte 3&lt;/span&gt;&lt;div style=&quot;font-size: 16px;&quot;&gt;&lt;span style=&quot;color: rgb(163, 159, 159);&quot;&gt;x8&lt;/span&gt;&lt;/div&gt;" style="rounded=0;whiteSpace=wrap;html=1;strokeColor=#454744;fillColor=#464646;direction=south;" vertex="1" parent="1">
          <mxGeometry x="540" y="430" width="80" height="60" as="geometry" />
        </mxCell>
        <mxCell id="l7971Fb0KRoO0V9OjNwi-114" value="&lt;span style=&quot;color: rgb(163, 159, 159);&quot;&gt;&lt;font style=&quot;font-size: 20px;&quot;&gt;RCD&lt;/font&gt;&lt;/span&gt;" style="rounded=0;whiteSpace=wrap;html=1;strokeColor=#454744;fillColor=#464646;direction=south;" vertex="1" parent="1">
          <mxGeometry x="560" y="575" width="80" height="70" as="geometry" />
        </mxCell>
        <mxCell id="l7971Fb0KRoO0V9OjNwi-115" value="" style="triangle;whiteSpace=wrap;html=1;rotation=-180;fillColor=#d5e8d4;strokeColor=#82b366;" vertex="1" parent="1">
          <mxGeometry x="210" y="690" width="50" height="60" as="geometry" />
        </mxCell>
        <mxCell id="l7971Fb0KRoO0V9OjNwi-117" style="edgeStyle=orthogonalEdgeStyle;rounded=0;orthogonalLoop=1;jettySize=auto;html=1;startArrow=classic;startFill=1;endArrow=none;endFill=0;strokeWidth=4;fillColor=#f5f5f5;strokeColor=#666666;exitX=0;exitY=0.5;exitDx=0;exitDy=0;entryX=0;entryY=1;entryDx=0;entryDy=0;" edge="1" parent="1" source="l7971Fb0KRoO0V9OjNwi-6" target="l7971Fb0KRoO0V9OjNwi-33">
          <mxGeometry relative="1" as="geometry">
            <mxPoint x="310" y="440" as="sourcePoint" />
            <mxPoint x="480" y="310" as="targetPoint" />
            <Array as="points">
              <mxPoint x="380" y="480" />
              <mxPoint x="380" y="320" />
            </Array>
          </mxGeometry>
        </mxCell>
        <mxCell id="l7971Fb0KRoO0V9OjNwi-118" style="edgeStyle=orthogonalEdgeStyle;rounded=0;orthogonalLoop=1;jettySize=auto;html=1;startArrow=classic;startFill=1;endArrow=none;endFill=0;strokeWidth=4;fillColor=#f5f5f5;strokeColor=#666666;exitX=0;exitY=0.5;exitDx=0;exitDy=0;entryX=0;entryY=1;entryDx=0;entryDy=0;" edge="1" parent="1" target="l7971Fb0KRoO0V9OjNwi-40">
          <mxGeometry relative="1" as="geometry">
            <mxPoint x="260" y="560" as="sourcePoint" />
            <mxPoint x="480" y="400" as="targetPoint" />
            <Array as="points">
              <mxPoint x="390" y="560" />
              <mxPoint x="390" y="390" />
            </Array>
          </mxGeometry>
        </mxCell>
        <mxCell id="l7971Fb0KRoO0V9OjNwi-119" style="edgeStyle=orthogonalEdgeStyle;rounded=0;orthogonalLoop=1;jettySize=auto;html=1;startArrow=classic;startFill=1;endArrow=none;endFill=0;strokeWidth=4;fillColor=#f5f5f5;strokeColor=#666666;exitX=0;exitY=0.5;exitDx=0;exitDy=0;entryX=0;entryY=1;entryDx=0;entryDy=0;" edge="1" parent="1" target="l7971Fb0KRoO0V9OjNwi-47">
          <mxGeometry relative="1" as="geometry">
            <mxPoint x="260" y="640" as="sourcePoint" />
            <mxPoint x="480" y="480" as="targetPoint" />
            <Array as="points">
              <mxPoint x="400" y="640" />
              <mxPoint x="400" y="460" />
            </Array>
          </mxGeometry>
        </mxCell>
        <mxCell id="l7971Fb0KRoO0V9OjNwi-120" style="edgeStyle=orthogonalEdgeStyle;rounded=0;orthogonalLoop=1;jettySize=auto;html=1;startArrow=classic;startFill=1;endArrow=none;endFill=0;strokeWidth=4;fillColor=#f5f5f5;strokeColor=#666666;exitX=0;exitY=0.5;exitDx=0;exitDy=0;entryX=0.25;entryY=1;entryDx=0;entryDy=0;" edge="1" parent="1" target="l7971Fb0KRoO0V9OjNwi-54">
          <mxGeometry relative="1" as="geometry">
            <mxPoint x="260" y="720" as="sourcePoint" />
            <mxPoint x="480" y="540" as="targetPoint" />
            <Array as="points">
              <mxPoint x="410" y="720" />
              <mxPoint x="410" y="533" />
              <mxPoint x="480" y="533" />
            </Array>
          </mxGeometry>
        </mxCell>
        <mxCell id="l7971Fb0KRoO0V9OjNwi-121" value=".&lt;div style=&quot;font-size: 25px;&quot;&gt;.&lt;/div&gt;&lt;div style=&quot;font-size: 25px;&quot;&gt;.&lt;/div&gt;" style="text;html=1;align=center;verticalAlign=middle;whiteSpace=wrap;rounded=0;fontStyle=1;fontSize=25;" vertex="1" parent="1">
          <mxGeometry x="210" y="750" width="60" height="80" as="geometry" />
        </mxCell>
        <mxCell id="l7971Fb0KRoO0V9OjNwi-122" value="" style="endArrow=classic;html=1;rounded=0;strokeWidth=2;" edge="1" parent="1">
          <mxGeometry width="50" height="50" relative="1" as="geometry">
            <mxPoint x="200" y="440" as="sourcePoint" />
            <mxPoint x="240" y="420" as="targetPoint" />
            <Array as="points">
              <mxPoint x="240" y="440" />
            </Array>
          </mxGeometry>
        </mxCell>
        <mxCell id="l7971Fb0KRoO0V9OjNwi-124" value="RxEN" style="text;html=1;align=center;verticalAlign=middle;whiteSpace=wrap;rounded=0;" vertex="1" parent="1">
          <mxGeometry x="150" y="425" width="50" height="30" as="geometry" />
        </mxCell>
        <mxCell id="l7971Fb0KRoO0V9OjNwi-125" value="" style="endArrow=classic;html=1;rounded=0;strokeWidth=2;" edge="1" parent="1">
          <mxGeometry width="50" height="50" relative="1" as="geometry">
            <mxPoint x="200" y="517.5" as="sourcePoint" />
            <mxPoint x="240" y="497.5" as="targetPoint" />
            <Array as="points">
              <mxPoint x="240" y="517.5" />
            </Array>
          </mxGeometry>
        </mxCell>
        <mxCell id="l7971Fb0KRoO0V9OjNwi-126" value="RxEN" style="text;html=1;align=center;verticalAlign=middle;whiteSpace=wrap;rounded=0;" vertex="1" parent="1">
          <mxGeometry x="150" y="502.5" width="50" height="30" as="geometry" />
        </mxCell>
        <mxCell id="l7971Fb0KRoO0V9OjNwi-127" value="" style="endArrow=classic;html=1;rounded=0;strokeWidth=2;" edge="1" parent="1">
          <mxGeometry width="50" height="50" relative="1" as="geometry">
            <mxPoint x="200" y="600" as="sourcePoint" />
            <mxPoint x="240" y="580" as="targetPoint" />
            <Array as="points">
              <mxPoint x="240" y="600" />
            </Array>
          </mxGeometry>
        </mxCell>
        <mxCell id="l7971Fb0KRoO0V9OjNwi-128" value="RxEN" style="text;html=1;align=center;verticalAlign=middle;whiteSpace=wrap;rounded=0;" vertex="1" parent="1">
          <mxGeometry x="150" y="585" width="50" height="30" as="geometry" />
        </mxCell>
        <mxCell id="l7971Fb0KRoO0V9OjNwi-129" value="" style="endArrow=classic;html=1;rounded=0;strokeWidth=2;" edge="1" parent="1">
          <mxGeometry width="50" height="50" relative="1" as="geometry">
            <mxPoint x="200" y="677.5" as="sourcePoint" />
            <mxPoint x="240" y="657.5" as="targetPoint" />
            <Array as="points">
              <mxPoint x="240" y="677.5" />
            </Array>
          </mxGeometry>
        </mxCell>
        <mxCell id="l7971Fb0KRoO0V9OjNwi-130" value="RxEN" style="text;html=1;align=center;verticalAlign=middle;whiteSpace=wrap;rounded=0;" vertex="1" parent="1">
          <mxGeometry x="150" y="662.5" width="50" height="30" as="geometry" />
        </mxCell>
        <mxCell id="l7971Fb0KRoO0V9OjNwi-131" value="" style="endArrow=classic;html=1;rounded=0;strokeWidth=2;" edge="1" parent="1">
          <mxGeometry width="50" height="50" relative="1" as="geometry">
            <mxPoint x="200" y="760" as="sourcePoint" />
            <mxPoint x="240" y="740" as="targetPoint" />
            <Array as="points">
              <mxPoint x="240" y="760" />
            </Array>
          </mxGeometry>
        </mxCell>
        <mxCell id="l7971Fb0KRoO0V9OjNwi-132" value="RxEN" style="text;html=1;align=center;verticalAlign=middle;whiteSpace=wrap;rounded=0;" vertex="1" parent="1">
          <mxGeometry x="150" y="745" width="50" height="30" as="geometry" />
        </mxCell>
        <mxCell id="l7971Fb0KRoO0V9OjNwi-133" value="DQS&lt;div&gt;Rx&lt;/div&gt;" style="text;html=1;align=center;verticalAlign=middle;whiteSpace=wrap;rounded=0;" vertex="1" parent="1">
          <mxGeometry x="210" y="385" width="60" height="30" as="geometry" />
        </mxCell>
        <mxCell id="l7971Fb0KRoO0V9OjNwi-134" value="DQS&lt;div&gt;Rx&lt;/div&gt;" style="text;html=1;align=center;verticalAlign=middle;whiteSpace=wrap;rounded=0;" vertex="1" parent="1">
          <mxGeometry x="210" y="465" width="60" height="30" as="geometry" />
        </mxCell>
        <mxCell id="l7971Fb0KRoO0V9OjNwi-135" value="DQS&lt;div&gt;Rx&lt;/div&gt;" style="text;html=1;align=center;verticalAlign=middle;whiteSpace=wrap;rounded=0;" vertex="1" parent="1">
          <mxGeometry x="210" y="545" width="60" height="30" as="geometry" />
        </mxCell>
        <mxCell id="l7971Fb0KRoO0V9OjNwi-136" value="DQS&lt;div&gt;Rx&lt;/div&gt;" style="text;html=1;align=center;verticalAlign=middle;whiteSpace=wrap;rounded=0;" vertex="1" parent="1">
          <mxGeometry x="210" y="625" width="60" height="30" as="geometry" />
        </mxCell>
        <mxCell id="l7971Fb0KRoO0V9OjNwi-137" value="DQS&lt;div&gt;Rx&lt;/div&gt;" style="text;html=1;align=center;verticalAlign=middle;whiteSpace=wrap;rounded=0;" vertex="1" parent="1">
          <mxGeometry x="210" y="705" width="60" height="30" as="geometry" />
        </mxCell>
        <mxCell id="l7971Fb0KRoO0V9OjNwi-139" value="" style="endArrow=classic;html=1;rounded=0;strokeWidth=3;fillColor=#f5f5f5;strokeColor=#333333;" edge="1" parent="1">
          <mxGeometry width="50" height="50" relative="1" as="geometry">
            <mxPoint x="635" y="575" as="sourcePoint" />
            <mxPoint x="635" y="250" as="targetPoint" />
          </mxGeometry>
        </mxCell>
        <mxCell id="l7971Fb0KRoO0V9OjNwi-140" value="CK&lt;div&gt;CS&lt;/div&gt;&lt;div&gt;CA&lt;/div&gt;" style="text;html=1;align=center;verticalAlign=middle;whiteSpace=wrap;rounded=0;" vertex="1" parent="1">
          <mxGeometry x="610" y="210" width="50" height="30" as="geometry" />
        </mxCell>
        <mxCell id="l7971Fb0KRoO0V9OjNwi-141" value="" style="endArrow=none;html=1;rounded=0;strokeWidth=3;fillColor=#f5f5f5;strokeColor=#666666;" edge="1" parent="1">
          <mxGeometry width="50" height="50" relative="1" as="geometry">
            <mxPoint x="294" y="730" as="sourcePoint" />
            <mxPoint x="324" y="730" as="targetPoint" />
          </mxGeometry>
        </mxCell>
        <mxCell id="l7971Fb0KRoO0V9OjNwi-142" value="" style="endArrow=none;html=1;rounded=0;strokeWidth=3;fillColor=#f5f5f5;strokeColor=#666666;" edge="1" parent="1">
          <mxGeometry width="50" height="50" relative="1" as="geometry">
            <mxPoint x="294" y="759.52" as="sourcePoint" />
            <mxPoint x="324" y="759.52" as="targetPoint" />
          </mxGeometry>
        </mxCell>
        <mxCell id="l7971Fb0KRoO0V9OjNwi-143" value="" style="endArrow=none;html=1;rounded=0;strokeWidth=3;fillColor=#f5f5f5;strokeColor=#666666;" edge="1" parent="1">
          <mxGeometry width="50" height="50" relative="1" as="geometry">
            <mxPoint x="324" y="730" as="sourcePoint" />
            <mxPoint x="334" y="760" as="targetPoint" />
          </mxGeometry>
        </mxCell>
        <mxCell id="l7971Fb0KRoO0V9OjNwi-144" value="" style="endArrow=none;html=1;rounded=0;strokeWidth=3;fillColor=#f5f5f5;strokeColor=#666666;" edge="1" parent="1">
          <mxGeometry width="50" height="50" relative="1" as="geometry">
            <mxPoint x="334" y="730" as="sourcePoint" />
            <mxPoint x="324" y="760" as="targetPoint" />
          </mxGeometry>
        </mxCell>
        <mxCell id="l7971Fb0KRoO0V9OjNwi-145" value="" style="endArrow=none;html=1;rounded=0;strokeWidth=3;fillColor=#f5f5f5;strokeColor=#666666;" edge="1" parent="1">
          <mxGeometry width="50" height="50" relative="1" as="geometry">
            <mxPoint x="284" y="730" as="sourcePoint" />
            <mxPoint x="294" y="760" as="targetPoint" />
          </mxGeometry>
        </mxCell>
        <mxCell id="l7971Fb0KRoO0V9OjNwi-146" value="" style="endArrow=none;html=1;rounded=0;strokeWidth=3;fillColor=#f5f5f5;strokeColor=#666666;" edge="1" parent="1">
          <mxGeometry width="50" height="50" relative="1" as="geometry">
            <mxPoint x="294" y="730" as="sourcePoint" />
            <mxPoint x="284" y="760" as="targetPoint" />
          </mxGeometry>
        </mxCell>
        <mxCell id="l7971Fb0KRoO0V9OjNwi-147" value="DATA" style="text;html=1;align=center;verticalAlign=middle;whiteSpace=wrap;rounded=0;" vertex="1" parent="1">
          <mxGeometry x="284" y="730" width="50" height="30" as="geometry" />
        </mxCell>
        <mxCell id="l7971Fb0KRoO0V9OjNwi-148" value="" style="endArrow=none;html=1;rounded=0;strokeWidth=3;fillColor=#f5f5f5;strokeColor=#666666;" edge="1" parent="1">
          <mxGeometry width="50" height="50" relative="1" as="geometry">
            <mxPoint x="304" y="650" as="sourcePoint" />
            <mxPoint x="334" y="650" as="targetPoint" />
          </mxGeometry>
        </mxCell>
        <mxCell id="l7971Fb0KRoO0V9OjNwi-149" value="" style="endArrow=none;html=1;rounded=0;strokeWidth=3;fillColor=#f5f5f5;strokeColor=#666666;" edge="1" parent="1">
          <mxGeometry width="50" height="50" relative="1" as="geometry">
            <mxPoint x="304" y="679.52" as="sourcePoint" />
            <mxPoint x="334" y="679.52" as="targetPoint" />
          </mxGeometry>
        </mxCell>
        <mxCell id="l7971Fb0KRoO0V9OjNwi-150" value="" style="endArrow=none;html=1;rounded=0;strokeWidth=3;fillColor=#f5f5f5;strokeColor=#666666;" edge="1" parent="1">
          <mxGeometry width="50" height="50" relative="1" as="geometry">
            <mxPoint x="334" y="650" as="sourcePoint" />
            <mxPoint x="344" y="680" as="targetPoint" />
          </mxGeometry>
        </mxCell>
        <mxCell id="l7971Fb0KRoO0V9OjNwi-151" value="" style="endArrow=none;html=1;rounded=0;strokeWidth=3;fillColor=#f5f5f5;strokeColor=#666666;" edge="1" parent="1">
          <mxGeometry width="50" height="50" relative="1" as="geometry">
            <mxPoint x="344" y="650" as="sourcePoint" />
            <mxPoint x="334" y="680" as="targetPoint" />
          </mxGeometry>
        </mxCell>
        <mxCell id="l7971Fb0KRoO0V9OjNwi-152" value="" style="endArrow=none;html=1;rounded=0;strokeWidth=3;fillColor=#f5f5f5;strokeColor=#666666;" edge="1" parent="1">
          <mxGeometry width="50" height="50" relative="1" as="geometry">
            <mxPoint x="294" y="650" as="sourcePoint" />
            <mxPoint x="304" y="680" as="targetPoint" />
          </mxGeometry>
        </mxCell>
        <mxCell id="l7971Fb0KRoO0V9OjNwi-153" value="" style="endArrow=none;html=1;rounded=0;strokeWidth=3;fillColor=#f5f5f5;strokeColor=#666666;" edge="1" parent="1">
          <mxGeometry width="50" height="50" relative="1" as="geometry">
            <mxPoint x="304" y="650" as="sourcePoint" />
            <mxPoint x="294" y="680" as="targetPoint" />
          </mxGeometry>
        </mxCell>
        <mxCell id="l7971Fb0KRoO0V9OjNwi-154" value="DATA" style="text;html=1;align=center;verticalAlign=middle;whiteSpace=wrap;rounded=0;" vertex="1" parent="1">
          <mxGeometry x="294" y="650" width="50" height="30" as="geometry" />
        </mxCell>
        <mxCell id="l7971Fb0KRoO0V9OjNwi-155" value="" style="endArrow=none;html=1;rounded=0;strokeWidth=3;fillColor=#f5f5f5;strokeColor=#666666;" edge="1" parent="1">
          <mxGeometry width="50" height="50" relative="1" as="geometry">
            <mxPoint x="317" y="570" as="sourcePoint" />
            <mxPoint x="347" y="570" as="targetPoint" />
          </mxGeometry>
        </mxCell>
        <mxCell id="l7971Fb0KRoO0V9OjNwi-156" value="" style="endArrow=none;html=1;rounded=0;strokeWidth=3;fillColor=#f5f5f5;strokeColor=#666666;" edge="1" parent="1">
          <mxGeometry width="50" height="50" relative="1" as="geometry">
            <mxPoint x="317" y="599.52" as="sourcePoint" />
            <mxPoint x="347" y="599.52" as="targetPoint" />
          </mxGeometry>
        </mxCell>
        <mxCell id="l7971Fb0KRoO0V9OjNwi-157" value="" style="endArrow=none;html=1;rounded=0;strokeWidth=3;fillColor=#f5f5f5;strokeColor=#666666;" edge="1" parent="1">
          <mxGeometry width="50" height="50" relative="1" as="geometry">
            <mxPoint x="347" y="570" as="sourcePoint" />
            <mxPoint x="357" y="600" as="targetPoint" />
          </mxGeometry>
        </mxCell>
        <mxCell id="l7971Fb0KRoO0V9OjNwi-158" value="" style="endArrow=none;html=1;rounded=0;strokeWidth=3;fillColor=#f5f5f5;strokeColor=#666666;" edge="1" parent="1">
          <mxGeometry width="50" height="50" relative="1" as="geometry">
            <mxPoint x="357" y="570" as="sourcePoint" />
            <mxPoint x="347" y="600" as="targetPoint" />
          </mxGeometry>
        </mxCell>
        <mxCell id="l7971Fb0KRoO0V9OjNwi-159" value="" style="endArrow=none;html=1;rounded=0;strokeWidth=3;fillColor=#f5f5f5;strokeColor=#666666;" edge="1" parent="1">
          <mxGeometry width="50" height="50" relative="1" as="geometry">
            <mxPoint x="307" y="570" as="sourcePoint" />
            <mxPoint x="317" y="600" as="targetPoint" />
          </mxGeometry>
        </mxCell>
        <mxCell id="l7971Fb0KRoO0V9OjNwi-160" value="" style="endArrow=none;html=1;rounded=0;strokeWidth=3;fillColor=#f5f5f5;strokeColor=#666666;" edge="1" parent="1">
          <mxGeometry width="50" height="50" relative="1" as="geometry">
            <mxPoint x="317" y="570" as="sourcePoint" />
            <mxPoint x="307" y="600" as="targetPoint" />
          </mxGeometry>
        </mxCell>
        <mxCell id="l7971Fb0KRoO0V9OjNwi-161" value="DATA" style="text;html=1;align=center;verticalAlign=middle;whiteSpace=wrap;rounded=0;" vertex="1" parent="1">
          <mxGeometry x="307" y="570" width="50" height="30" as="geometry" />
        </mxCell>
        <mxCell id="l7971Fb0KRoO0V9OjNwi-162" value="" style="endArrow=none;html=1;rounded=0;strokeWidth=3;fillColor=#f5f5f5;strokeColor=#666666;" edge="1" parent="1">
          <mxGeometry width="50" height="50" relative="1" as="geometry">
            <mxPoint x="331" y="490" as="sourcePoint" />
            <mxPoint x="361" y="490" as="targetPoint" />
          </mxGeometry>
        </mxCell>
        <mxCell id="l7971Fb0KRoO0V9OjNwi-163" value="" style="endArrow=none;html=1;rounded=0;strokeWidth=3;fillColor=#f5f5f5;strokeColor=#666666;" edge="1" parent="1">
          <mxGeometry width="50" height="50" relative="1" as="geometry">
            <mxPoint x="331" y="519.52" as="sourcePoint" />
            <mxPoint x="361" y="519.52" as="targetPoint" />
          </mxGeometry>
        </mxCell>
        <mxCell id="l7971Fb0KRoO0V9OjNwi-164" value="" style="endArrow=none;html=1;rounded=0;strokeWidth=3;fillColor=#f5f5f5;strokeColor=#666666;" edge="1" parent="1">
          <mxGeometry width="50" height="50" relative="1" as="geometry">
            <mxPoint x="361" y="490" as="sourcePoint" />
            <mxPoint x="371" y="520" as="targetPoint" />
          </mxGeometry>
        </mxCell>
        <mxCell id="l7971Fb0KRoO0V9OjNwi-165" value="" style="endArrow=none;html=1;rounded=0;strokeWidth=3;fillColor=#f5f5f5;strokeColor=#666666;" edge="1" parent="1">
          <mxGeometry width="50" height="50" relative="1" as="geometry">
            <mxPoint x="371" y="490" as="sourcePoint" />
            <mxPoint x="361" y="520" as="targetPoint" />
          </mxGeometry>
        </mxCell>
        <mxCell id="l7971Fb0KRoO0V9OjNwi-166" value="" style="endArrow=none;html=1;rounded=0;strokeWidth=3;fillColor=#f5f5f5;strokeColor=#666666;" edge="1" parent="1">
          <mxGeometry width="50" height="50" relative="1" as="geometry">
            <mxPoint x="321" y="490" as="sourcePoint" />
            <mxPoint x="331" y="520" as="targetPoint" />
          </mxGeometry>
        </mxCell>
        <mxCell id="l7971Fb0KRoO0V9OjNwi-167" value="" style="endArrow=none;html=1;rounded=0;strokeWidth=3;fillColor=#f5f5f5;strokeColor=#666666;" edge="1" parent="1">
          <mxGeometry width="50" height="50" relative="1" as="geometry">
            <mxPoint x="331" y="490" as="sourcePoint" />
            <mxPoint x="321" y="520" as="targetPoint" />
          </mxGeometry>
        </mxCell>
        <mxCell id="l7971Fb0KRoO0V9OjNwi-168" value="DATA" style="text;html=1;align=center;verticalAlign=middle;whiteSpace=wrap;rounded=0;" vertex="1" parent="1">
          <mxGeometry x="321" y="490" width="50" height="30" as="geometry" />
        </mxCell>
        <mxCell id="l7971Fb0KRoO0V9OjNwi-169" value="" style="endArrow=none;html=1;rounded=0;strokeWidth=3;fillColor=#f5f5f5;strokeColor=#666666;" edge="1" parent="1">
          <mxGeometry width="50" height="50" relative="1" as="geometry">
            <mxPoint x="335" y="410" as="sourcePoint" />
            <mxPoint x="365" y="410" as="targetPoint" />
          </mxGeometry>
        </mxCell>
        <mxCell id="l7971Fb0KRoO0V9OjNwi-170" value="" style="endArrow=none;html=1;rounded=0;strokeWidth=3;fillColor=#f5f5f5;strokeColor=#666666;" edge="1" parent="1">
          <mxGeometry width="50" height="50" relative="1" as="geometry">
            <mxPoint x="335" y="439.52" as="sourcePoint" />
            <mxPoint x="365" y="439.52" as="targetPoint" />
          </mxGeometry>
        </mxCell>
        <mxCell id="l7971Fb0KRoO0V9OjNwi-171" value="" style="endArrow=none;html=1;rounded=0;strokeWidth=3;fillColor=#f5f5f5;strokeColor=#666666;" edge="1" parent="1">
          <mxGeometry width="50" height="50" relative="1" as="geometry">
            <mxPoint x="365" y="410" as="sourcePoint" />
            <mxPoint x="375" y="440" as="targetPoint" />
          </mxGeometry>
        </mxCell>
        <mxCell id="l7971Fb0KRoO0V9OjNwi-172" value="" style="endArrow=none;html=1;rounded=0;strokeWidth=3;fillColor=#f5f5f5;strokeColor=#666666;" edge="1" parent="1">
          <mxGeometry width="50" height="50" relative="1" as="geometry">
            <mxPoint x="375" y="410" as="sourcePoint" />
            <mxPoint x="365" y="440" as="targetPoint" />
          </mxGeometry>
        </mxCell>
        <mxCell id="l7971Fb0KRoO0V9OjNwi-173" value="" style="endArrow=none;html=1;rounded=0;strokeWidth=3;fillColor=#f5f5f5;strokeColor=#666666;" edge="1" parent="1">
          <mxGeometry width="50" height="50" relative="1" as="geometry">
            <mxPoint x="325" y="410" as="sourcePoint" />
            <mxPoint x="335" y="440" as="targetPoint" />
          </mxGeometry>
        </mxCell>
        <mxCell id="l7971Fb0KRoO0V9OjNwi-174" value="" style="endArrow=none;html=1;rounded=0;strokeWidth=3;fillColor=#f5f5f5;strokeColor=#666666;" edge="1" parent="1">
          <mxGeometry width="50" height="50" relative="1" as="geometry">
            <mxPoint x="335" y="410" as="sourcePoint" />
            <mxPoint x="325" y="440" as="targetPoint" />
          </mxGeometry>
        </mxCell>
        <mxCell id="l7971Fb0KRoO0V9OjNwi-175" value="DATA" style="text;html=1;align=center;verticalAlign=middle;whiteSpace=wrap;rounded=0;" vertex="1" parent="1">
          <mxGeometry x="325" y="410" width="50" height="30" as="geometry" />
        </mxCell>
      </root>
    </mxGraphModel>
  </diagram>
</mxfile>
